<svg width="553" height="554" viewBox="0 0 553 554" fill="none" xmlns="http://www.w3.org/2000/svg">
<path d="M293.292 319.512L305.469 288.648L317.646 257.784C318.397 255.848 317.295 254.008 315.516 252.87C308.751 248.537 302.236 244.374 295.121 241.13C288.005 237.886 280.313 235.611 271.168 235.005C265.63 234.642 263.45 252.628 262.849 270.856C262.248 289.084 263.275 307.53 264.152 308.111C275.176 315.373 274.675 314.646 283.695 319.972C285.8 321.231 290.21 324.087 293.292 319.512Z" fill="url(#paint0_linear_1301_1290)"/>
<path d="M308.454 248.435C301.99 244.755 294.573 239.841 286.054 238.147C277.51 236.452 269.267 236.089 261.299 236.767C259.571 236.912 258.243 238.607 257.942 240.955C256.965 248.459 258.393 260.49 259.12 272.593C259.971 286.876 262.828 305.588 264.256 308.105C270.269 311.978 269.868 311.809 276.784 316.093C280.291 318.272 282.922 319.095 285.553 315.851C285.678 315.682 285.954 315.198 286.104 315.004L298.156 284.455L310.584 253.349C311.335 251.436 310.283 249.476 308.454 248.435Z" fill="url(#paint1_linear_1301_1290)"/>
<path d="M301.012 244.247C294.899 241.197 286.53 237.009 276.533 235.968C266.761 234.927 258.117 236.864 251.352 238.51C249.498 238.97 248.321 240.955 248.596 243.061C249.824 252.066 253.156 263.032 255.261 274.312C257.19 284.624 260.823 295.082 261.75 299.875C263.254 307.621 265.208 308.493 270.019 311.978C272.023 313.431 276.082 314.52 278.337 311.397C278.412 311.301 278.713 310.623 278.788 310.526L290.715 280.267L303.142 249.161C303.894 247.225 302.917 245.191 301.012 244.247Z" fill="url(#paint2_linear_1301_1290)" fill-opacity="0.6"/>
<path d="M271.096 306.919L283.273 276.055L295.45 245.191C296.202 243.254 295.275 241.1 293.321 240.277C287.558 237.832 278.438 234.927 267.012 235C255.913 235.072 247.068 237.88 241.381 240.277C239.426 241.124 238.499 243.279 239.276 245.215C243.335 255.503 247.394 265.791 251.453 276.079C255.512 286.367 259.571 296.655 263.63 306.943C264.933 310.259 269.793 310.259 271.096 306.919Z" fill="url(#paint3_linear_1301_1290)"/>
<path opacity="0.2" d="M504 277.5C504 403.145 402.145 505 276.5 505C150.855 505 49 403.145 49 277.5C49 151.855 150.855 50 276.5 50C402.145 50 504 151.855 504 277.5ZM168.023 277.5C168.023 337.41 216.59 385.977 276.5 385.977C336.41 385.977 384.977 337.41 384.977 277.5C384.977 217.59 336.41 169.023 276.5 169.023C216.59 169.023 168.023 217.59 168.023 277.5Z" fill="url(#paint4_linear_1301_1290)"/>
<path d="M454 277.5C454 375.531 374.531 455 276.5 455C178.469 455 99 375.531 99 277.5C99 179.469 178.469 100 276.5 100C374.531 100 454 179.469 454 277.5ZM168.042 277.5C168.042 337.399 216.601 385.958 276.5 385.958C336.399 385.958 384.958 337.399 384.958 277.5C384.958 217.601 336.399 169.042 276.5 169.042C216.601 169.042 168.042 217.601 168.042 277.5Z" fill="#44D2B0" fill-opacity="0.2"/>
<circle cx="276.5" cy="277.208" r="275.5" stroke="#3A256C" stroke-opacity="0.3" stroke-width="2" stroke-linecap="round" stroke-linejoin="round" stroke-dasharray="2 6"/>
<circle cx="276.5" cy="277.5" r="275.5" stroke="#3A256C" stroke-opacity="0.3" stroke-width="2" stroke-linecap="round" stroke-linejoin="round" stroke-dasharray="2 6"/>
<defs>
<linearGradient id="paint0_linear_1301_1290" x1="290.277" y1="235" x2="290.277" y2="322.014" gradientUnits="userSpaceOnUse">
<stop stop-color="#89DEC5"/>
<stop offset="1" stop-color="#B0EEDD"/>
</linearGradient>
<linearGradient id="paint1_linear_1301_1290" x1="284.133" y1="253.268" x2="284.23" y2="318.012" gradientUnits="userSpaceOnUse">
<stop stop-color="#44D2B0"/>
<stop offset="0.682292" stop-color="#89DEC5"/>
</linearGradient>
<linearGradient id="paint2_linear_1301_1290" x1="275.976" y1="235.675" x2="275.976" y2="313.409" gradientUnits="userSpaceOnUse">
<stop stop-color="#44D2B0"/>
<stop offset="1" stop-color="#5CBE9C"/>
</linearGradient>
<linearGradient id="paint3_linear_1301_1290" x1="267.356" y1="234.998" x2="267.356" y2="309.427" gradientUnits="userSpaceOnUse">
<stop stop-color="#44D2B0"/>
<stop offset="1" stop-color="#94FBE3"/>
</linearGradient>
<linearGradient id="paint4_linear_1301_1290" x1="449.734" y1="-145.65" x2="545.083" y2="1019.92" gradientUnits="userSpaceOnUse">
<stop stop-color="#B3FFAB"/>
<stop offset="1" stop-color="#0CBCB3"/>
</linearGradient>
</defs>
</svg>
