<svg width="38" height="47" viewBox="0 0 38 47" fill="none" xmlns="http://www.w3.org/2000/svg">
<path d="M26.1653 44.7112L32.0225 28.7471L37.8798 12.783C38.2414 11.7813 37.7111 10.8297 36.8554 10.2412C33.6014 8.00001 30.4678 5.84642 27.0451 4.16862C23.6223 2.49083 19.9223 1.31387 15.5233 1.00084C12.8598 0.81303 11.8113 10.116 11.5221 19.5442C11.2328 28.9725 11.7269 38.5134 12.1488 38.8139C17.4517 42.5701 17.2106 42.1945 21.5493 44.9491C22.5617 45.6002 24.6829 47.0776 26.1653 44.7112Z" fill="#0CBCB3"/>
<path d="M33.4091 7.94946C30.2997 6.04629 26.7323 3.50455 22.6346 2.62809C18.5249 1.75163 14.5598 1.56382 10.7272 1.9144C9.89566 1.98953 9.2569 2.86599 9.11228 4.08051C8.64225 7.96198 9.32921 14.1849 9.67872 20.4453C10.0885 27.8326 11.4624 37.5112 12.1494 38.8134C15.0419 40.8167 14.849 40.7291 18.1754 42.9453C19.8627 44.0722 21.1281 44.4979 22.3936 42.8201C22.4539 42.7324 22.5864 42.482 22.6587 42.3819L28.4558 26.5805L34.4336 10.4912C34.7951 9.50205 34.2889 8.48786 33.4091 7.94946Z" fill="#44D2B0"/>
<path d="M29.8297 5.78356C26.889 4.20593 22.8636 2.03982 18.0548 1.50142C13.3546 0.963027 9.19661 1.9647 5.94257 2.81612C5.05072 3.05401 4.48427 4.08072 4.61684 5.17004C5.20739 9.8278 6.81031 15.4998 7.82268 21.3345C8.75069 26.6684 10.4982 32.0774 10.9442 34.5565C11.6673 38.5632 12.6073 39.0139 14.9213 40.817C15.8855 41.5682 17.8379 42.1316 18.9226 40.5165C18.9587 40.4664 19.1034 40.1158 19.1395 40.0657L24.8763 24.4146L30.8541 8.3253C31.2156 7.32363 30.7456 6.27188 29.8297 5.78356Z" fill="#7BE9AE"/>
<path d="M15.4379 38.2002L21.2952 22.2361L27.1525 6.27198C27.5141 5.27031 27.0681 4.15595 26.1281 3.73024C23.3561 2.46563 18.9692 0.963128 13.4735 1.00069C8.13442 1.03825 3.88006 2.49067 1.14425 3.73024C0.204196 4.16847 -0.241728 5.28283 0.131884 6.2845C2.08431 11.6059 4.03674 16.9272 5.98916 22.2486C7.94159 27.57 9.89402 32.8913 11.8464 38.2127C12.4731 39.9281 14.8112 39.9281 15.4379 38.2002Z" fill="#B3FFAB"/>
</svg>
