<svg width="304" height="138" viewBox="0 0 304 138" fill="none" xmlns="http://www.w3.org/2000/svg">
<g filter="url(#filter0_d_666_5373)">
<mask id="path-1-inside-1_666_5373" fill="white">
<path fill-rule="evenodd" clip-rule="evenodd" d="M30 0C13.4315 0 0 13.4315 0 30V92C0 108.569 13.4315 122 30 122H35.7223C35.8318 122.327 35.9875 122.65 36.1932 122.96L42.166 131.97C43.748 134.357 47.252 134.357 48.834 131.97L54.8068 122.96C55.0125 122.65 55.1682 122.327 55.2777 122H274C290.569 122 304 108.569 304 92V30C304 13.4315 290.569 0 274 0H30Z"/>
</mask>
<path fill-rule="evenodd" clip-rule="evenodd" d="M30 0C13.4315 0 0 13.4315 0 30V92C0 108.569 13.4315 122 30 122H35.7223C35.8318 122.327 35.9875 122.65 36.1932 122.96L42.166 131.97C43.748 134.357 47.252 134.357 48.834 131.97L54.8068 122.96C55.0125 122.65 55.1682 122.327 55.2777 122H274C290.569 122 304 108.569 304 92V30C304 13.4315 290.569 0 274 0H30Z" fill="#F8FAF9"/>
<path d="M35.7223 122L36.6706 121.683L36.4422 121H35.7223V122ZM36.1932 122.96L37.0267 122.408L37.0267 122.408L36.1932 122.96ZM42.166 131.97L41.3325 132.523L42.166 131.97ZM48.834 131.97L49.6675 132.523L48.834 131.97ZM54.8068 122.96L55.6403 123.513L54.8068 122.96ZM55.2777 122V121H54.5578L54.3294 121.683L55.2777 122ZM1 30C1 13.9837 13.9837 1 30 1V-1C12.8792 -1 -1 12.8792 -1 30H1ZM1 92V30H-1V92H1ZM30 121C13.9837 121 1 108.016 1 92H-1C-1 109.121 12.8792 123 30 123V121ZM35.7223 121H30V123H35.7223V121ZM37.0267 122.408C36.8692 122.17 36.7522 121.927 36.6706 121.683L34.7739 122.317C34.9114 122.728 35.1059 123.13 35.3597 123.513L37.0267 122.408ZM42.9995 131.418L37.0267 122.408L35.3596 123.513L41.3325 132.523L42.9995 131.418ZM48.0005 131.418C46.814 133.208 44.186 133.208 42.9995 131.418L41.3325 132.523C43.31 135.506 47.69 135.506 49.6675 132.523L48.0005 131.418ZM53.9733 122.408L48.0005 131.418L49.6675 132.523L55.6403 123.513L53.9733 122.408ZM54.3294 121.683C54.2478 121.927 54.1308 122.17 53.9733 122.408L55.6403 123.513C55.8941 123.13 56.0886 122.728 56.2261 122.317L54.3294 121.683ZM274 121H55.2777V123H274V121ZM303 92C303 108.016 290.016 121 274 121V123C291.121 123 305 109.121 305 92H303ZM303 30V92H305V30H303ZM274 1C290.016 1 303 13.9837 303 30H305C305 12.8792 291.121 -1 274 -1V1ZM30 1H274V-1H30V1Z" fill="#3A256C" fill-opacity="0.1" mask="url(#path-1-inside-1_666_5373)"/>
</g>
<defs>
<filter id="filter0_d_666_5373" x="0" y="0" width="304" height="137.76" filterUnits="userSpaceOnUse" color-interpolation-filters="sRGB">
<feFlood flood-opacity="0" result="BackgroundImageFix"/>
<feColorMatrix in="SourceAlpha" type="matrix" values="0 0 0 0 0 0 0 0 0 0 0 0 0 0 0 0 0 0 127 0" result="hardAlpha"/>
<feOffset dy="4"/>
<feComposite in2="hardAlpha" operator="out"/>
<feColorMatrix type="matrix" values="0 0 0 0 0.390347 0 0 0 0 0.641667 0 0 0 0 0.581492 0 0 0 0.22 0"/>
<feBlend mode="normal" in2="BackgroundImageFix" result="effect1_dropShadow_666_5373"/>
<feBlend mode="normal" in="SourceGraphic" in2="effect1_dropShadow_666_5373" result="shape"/>
</filter>
</defs>
</svg>
